<svg width="458" height="437" viewBox="0 0 458 437" fill="none" xmlns="http://www.w3.org/2000/svg">
<g clip-path="url(#clip0_1_24)">
<path d="M277.5 48H314.25L330.5 49.5L340.75 50.75L351 52.5L361.75 55L370.25 57.5L377.75 60.25L383.5 62.75L387.75 64.75L393.25 67.75L399 71.25L403 74.25L406.25 76.75L409 79L411.75 81.5L413.75 83.25L418 87.5L419.75 89.5L422.5 92.75L424.75 95.75L427.25 99.25L430.25 104L433.5 109.75L436.25 116L438.75 123L440.75 131L442 138.25V151.25L440.75 159.25L438.75 167.75L435.75 176.75L433 183.25L430 189.5L428 193.5L424.5 200L420.25 207L416.5 213L411 221.25L407 227L403.5 232L400.25 236.5L397.75 240L384.75 258L381.25 263L378.25 267.25L372.75 275.25L364.75 287.25L361.5 292.25L358 297.75L354.75 303L346.25 317L343 322.75L336 335L332.5 341.5L330 346L326.5 352.25L323 358.25L318.75 365.5L315.25 371.25L309.75 379.5L307 383.5L303.5 388.25L300.25 392.25L297.25 395.75L295 398.25L293.5 400H293L292.5 401L290.5 402.75L287 406L283.75 408.5L279.25 411.5L275.25 413.75L271 415.75L266.25 417.25L261 418.5L257.75 419H245.5L234.75 417L226.75 415L217.75 412L210 409L202.5 405.75L195.5 402.5L182.5 396L177 393L170.5 389.5L163.25 385.5L157.5 382.25L150.75 378.5L145 375.25L137.75 371.25L132 368L126 364.75L109 355.5L102 351.75L95.25 348.25L90.5 345.75L63 332L58.25 329.5L49.5 325L45.5 322.75L39.75 319.5L34.75 316.5L30 313.5L25 310L22 307.75L18 304.5L15 301.75L13 300L9.75 296.5L7 293L4.5 289.25L2 284L0.75 280.25L0 277.25V267.25L2 259.25L4.25 252.75L7.75 245.25L11.5 238.25L14.5 233.25L16.25 230.5L19 226.25L21.5 222.5L24.75 218L27.5 214L30.75 209.5L33.25 206L36.5 201.5L40 196.75L43.25 192.25L49.25 183.75L56 173.5L60 167L63.75 160.75L67.25 154.75L70.25 149.5L74 143L76.5 138.75L80.5 132L83.25 127.5L85.5 124L89.5 118L93 113.25L95.75 109.75L98.75 106.25L100.5 104.25L107.5 97.25L110.25 95L114 92L118.5 88.75L122.75 86L126.5 83.75L132 80.75L136 78.75L141.75 76L147.75 73.5L155 70.75L164.5 67.5L176.25 64L190.75 60.25L204 57.25L219.5 54.25L234.25 52L244.25 50.75L256.5 49.5L273 48.25L277.5 48Z" fill="#F3F6FE"/>
</g>
<path d="M424.461 47.1209C422.63 44.737 424.253 41.3988 427.382 41.1122L453.511 38.7186C456.639 38.432 458.928 41.4119 457.629 44.0824L446.787 66.3855C445.489 69.056 441.578 69.4143 439.748 67.0304L424.461 47.1209Z" fill="#FF5B60"/>
<path d="M382.493 0.648634C390.758 3.01851 395.397 11.1883 392.856 18.8964C390.316 26.6045 381.556 30.932 373.292 28.5621C365.028 26.1922 360.389 18.0224 362.93 10.3143C365.47 2.60624 374.229 -1.72124 382.493 0.648634Z" fill="#6476FF"/>
<path d="M397.091 92.88C394.724 96.1318 389.979 96.9783 386.493 94.7706L365.345 81.3792C361.859 79.1716 360.951 74.7458 363.318 71.494C365.685 68.2422 370.43 67.3958 373.916 69.6034L395.064 82.9948C398.551 85.2024 399.458 89.6282 397.091 92.88Z" fill="#FECC38"/>
<path d="M44.7124 361.82L59.7542 345.173C60.5005 344.347 60.4454 343.064 59.6311 342.307L43.2187 327.05C42.4044 326.294 41.1392 326.349 40.3929 327.175L25.3511 343.822C24.6048 344.648 24.6599 345.931 25.4742 346.688L41.8866 361.945C42.7009 362.702 43.9661 362.646 44.7124 361.82Z" fill="#29B9BB"/>
<path d="M123.541 371.105C124.004 372.594 122.704 374.033 121.2 373.695L93.2697 367.412C91.7666 367.074 91.1881 365.212 92.2284 364.061L111.559 342.668C112.599 341.517 114.478 341.94 114.94 343.429L123.541 371.105Z" fill="#BE34C4"/>
<path d="M77.7112 421.562C63.7742 420.585 53.8374 407.437 56.5282 393.532" stroke="#FECC38" stroke-width="6" stroke-linecap="round"/>
<defs>
<clipPath id="clip0_1_24">
<rect width="442" height="371" fill="white" transform="translate(0 48)"/>
</clipPath>
</defs>
</svg>
