<?xml version="1.0" encoding="UTF-8"?>
<svg version="1.1" xmlns="http://www.w3.org/2000/svg" width="813" height="265">
<path d="M0 0 C268.29 0 536.58 0 813 0 C813 87.45 813 174.9 813 265 C544.71 265 276.42 265 0 265 C0 177.55 0 90.1 0 0 Z " fill="#FEFEFE" transform="translate(0,0)"/>
<path d="M0 0 C5.61 0 11.22 0 17 0 C19.69853746 6.45721464 21.98449618 12.9073384 23.984375 19.61328125 C24.67926349 21.93046711 25.3992788 24.24022558 26.140625 26.54296875 C26.50671875 27.68378906 26.8728125 28.82460937 27.25 30 C27.58515625 31.03125 27.9203125 32.0625 28.265625 33.125 C28.97155645 35.88864653 29.14596365 38.16413483 29 41 C29.66 41 30.32 41 31 41 C31.11859375 39.8346875 31.2371875 38.669375 31.359375 37.46875 C31.88260868 33.30483442 32.94551565 29.49601536 34.25 25.5 C34.69824486 24.1133873 35.14615076 22.72666499 35.59375 21.33984375 C35.82449219 20.6319873 36.05523437 19.92413086 36.29296875 19.19482422 C37.01637321 16.94917295 37.71499727 14.69714926 38.40625 12.44140625 C38.63151367 11.70792969 38.85677734 10.97445312 39.08886719 10.21875 C39.52347744 8.80129147 39.9564686 7.3833353 40.38769531 5.96484375 C41.88835565 1.11164435 41.88835565 1.11164435 43 0 C45.53049402 -0.07313567 48.03304837 -0.09247527 50.5625 -0.0625 C51.62887695 -0.05573242 51.62887695 -0.05573242 52.71679688 -0.04882812 C54.47790013 -0.03700864 56.23896036 -0.01907263 58 0 C58.17015625 0.52207031 58.3403125 1.04414062 58.515625 1.58203125 C59.91010696 5.81739933 61.37041989 10.01274903 62.9375 14.1875 C66.13521024 22.93200763 68.83741063 31.74625834 70 41 C70.66 41 71.32 41 72 41 C72.13716431 40.0721167 72.13716431 40.0721167 72.27709961 39.12548828 C73.52448998 31.488092 75.60501181 24.19861055 77.94116211 16.83496094 C78.57188383 14.84539946 79.19188218 12.85271508 79.81054688 10.859375 C82.85865627 1.14134373 82.85865627 1.14134373 84 0 C86.3756852 -0.0883967 88.72208674 -0.11530305 91.09765625 -0.09765625 C92.16094398 -0.09553383 92.16094398 -0.09553383 93.24571228 -0.09336853 C95.51801712 -0.08775443 97.79022475 -0.07519963 100.0625 -0.0625 C101.59960796 -0.05748681 103.13671745 -0.05292359 104.67382812 -0.04882812 C108.44925642 -0.03778042 112.22461171 -0.02050641 116 0 C119.51367725 7.59022513 122.49659127 15.35822832 125.42871094 23.18603516 C126.25679012 25.39309758 127.09306031 27.59694707 127.9296875 29.80078125 C128.45883157 31.20814611 128.98749516 32.61569173 129.515625 34.0234375 C129.76556213 34.67968109 130.01549927 35.33592468 130.27301025 36.01205444 C131.3222845 38.83390215 132 40.96047634 132 44 C132.66 44 133.32 44 134 44 C134.2475 43.05125 134.495 42.1025 134.75 41.125 C135.86315219 37.23285948 137.33754562 33.53775869 138.8671875 29.79296875 C140.0929742 26.77077052 141.26946497 23.73247182 142.4375 20.6875 C142.85386719 19.60339844 143.27023437 18.51929688 143.69921875 17.40234375 C144.60166431 15.04189304 145.4998027 12.67979288 146.39453125 10.31640625 C146.84183594 9.13949219 147.28914062 7.96257812 147.75 6.75 C148.15734375 5.67234375 148.5646875 4.5946875 148.984375 3.484375 C150 1 150 1 151 0 C153.86267567 -0.07325168 156.700719 -0.09238205 159.5625 -0.0625 C160.36880859 -0.05798828 161.17511719 -0.05347656 162.00585938 -0.04882812 C164.00393756 -0.03700518 166.00197783 -0.01906914 168 0 C166.99970639 4.18695156 165.60994756 8.19090647 164.1875 12.25 C163.8152832 13.33861328 163.8152832 13.33861328 163.43554688 14.44921875 C161.88574363 18.87384787 160.05352891 22.98802545 157.90356445 27.15136719 C156.6616012 29.69234146 155.82250312 32.29748976 155 35 C153.65015745 39.21825797 152.07773279 42.97925102 150 46.875 C148.75501493 49.52059328 147.89094682 52.21579118 147 55 C145.89394765 58.45157194 144.77061287 61.67829078 143.0625 64.875 C140.00331108 70.60336172 138.09973556 76.87290279 136 83 C135.34 83 134.68 83 134 83 C133.6596875 84.0828125 133.6596875 84.0828125 133.3125 85.1875 C130.84449908 90.4760734 126.71029516 93.74585125 121.53515625 96.21875 C116.17488144 97.87060664 110.56810195 97.78584223 105 98 C105 93.05 105 88.1 105 83 C106.36125 82.7525 107.7225 82.505 109.125 82.25 C114.21861368 81.08254694 118.23184059 79.60401659 121.2890625 75.1015625 C123.42083237 71.20056865 124.25580038 69.32097438 123 65 C122.10554858 62.30249304 121.19289335 59.61795226 120.25 56.9375 C119.98268066 56.17743652 119.71536133 55.41737305 119.43994141 54.63427734 C117.59048685 49.45909738 115.48563393 44.47982511 113.140625 39.5078125 C111.62504716 36.17561739 110.39850556 32.77417895 109.1796875 29.32421875 C107.57613141 24.80558885 105.91127887 20.31016946 104.25 15.8125 C103.63015076 14.13153164 103.01035465 12.4505437 102.390625 10.76953125 C101.92711589 9.51300882 101.4635873 8.25649358 101 7 C100.34 7 99.68 7 99 7 C98.74605469 7.845625 98.49210938 8.69125 98.23046875 9.5625 C97.71419922 11.2640625 97.71419922 11.2640625 97.1875 13 C96.85105469 14.11375 96.51460937 15.2275 96.16796875 16.375 C95.38165663 18.81546037 94.53081691 21.23595567 93.62084961 23.63305664 C91.89524654 28.20731861 90.38804604 32.84055193 88.8984375 37.49609375 C88.32037099 39.28843032 87.74224429 41.08074749 87.1640625 42.87304688 C86.26326511 45.67308311 85.36346978 48.47343605 84.46484375 51.27416992 C83.59113407 53.99482054 82.71375134 56.71426508 81.8359375 59.43359375 C81.43125748 60.70063393 81.43125748 60.70063393 81.0184021 61.99327087 C79.11321741 67.88678259 79.11321741 67.88678259 78 69 C75.46950598 69.07313567 72.96695163 69.09247527 70.4375 69.0625 C69.37112305 69.05573242 69.37112305 69.05573242 68.28320312 69.04882812 C66.52209987 69.03700864 64.76103964 69.01907263 63 69 C60.84375138 63.47500352 59.08474045 57.97841485 57.5625 52.25 C54.76407861 41.46164825 54.76407861 41.46164825 51 31 C50.34 30.67 49.68 30.34 49 30 C48.91621094 31.05960938 48.83242188 32.11921875 48.74609375 33.2109375 C47.99075475 39.24037467 45.96799148 44.8781726 44.0625 50.625 C43.70220703 51.73101562 43.34191406 52.83703125 42.97070312 53.9765625 C41.33428207 58.99130401 39.66810352 63.99568943 38 69 C33.05 69 28.1 69 23 69 C20.72059606 64.44119212 19.28523282 60.9339128 18 56.125 C16.83951034 51.802176 15.51470073 47.64592306 13.91015625 43.46826172 C11.53905689 37.03805395 9.4813099 30.4895419 7.33398438 23.98144531 C4.41526701 15.06120066 4.41526701 15.06120066 1.1875 6.25 C0 3 0 3 0 0 Z " fill="#24272C" transform="translate(443,111)"/>
<path d="M0 0 C8.10564115 5.7913723 14.12430867 13.00238309 16 23 C17.10974161 36.1900717 14.57373751 46.76969298 5.9453125 57.09765625 C2.68736498 60.28364108 -0.8456173 62.19835444 -5 64 C-5.67546875 64.31839844 -6.3509375 64.63679688 -7.046875 64.96484375 C-15.7192188 68.50224714 -26.10684026 68.28689229 -34.9375 65.4375 C-42.43297594 62.28092308 -48.05307487 57.07157418 -52 50 C-52 49.34 -52 48.68 -52 48 C-52.66 48 -53.32 48 -54 48 C-57.76459691 37.01992569 -59.04140777 25.53834517 -54.44921875 14.59765625 C-49.69346707 6.07319569 -41.68523641 -1.77582078 -32.1027832 -4.54907227 C-21.34293919 -6.85644854 -9.36723994 -5.83577685 0 0 Z " fill="#23262B" transform="translate(429,115)"/>
<path d="M0 0 C26.73 0 53.46 0 81 0 C81 12.64898283 78.24644277 19.76116456 71 30 C70.5875 30.59941406 70.175 31.19882813 69.75 31.81640625 C66.33962545 36.35173073 61.76142837 39.08197185 57 42 C56.4225 42.38285156 55.845 42.76570313 55.25 43.16015625 C44.0921205 50.21429641 31.47708322 49.36617134 18.8125 49.1875 C12.604375 49.125625 6.39625 49.06375 0 49 C0 32.83 0 16.66 0 0 Z " fill="#3E71FE" transform="translate(162,60)"/>
<path d="M0 0 C22.44 0 44.88 0 68 0 C68 5.61 68 11.22 68 17 C51.5 17 35 17 18 17 C18 23.6 18 30.2 18 37 C32.19 37 46.38 37 61 37 C61 42.61 61 48.22 61 54 C46.81 54 32.62 54 18 54 C18 66.54 18 79.08 18 92 C12.06 92 6.12 92 0 92 C0 61.64 0 31.28 0 0 Z " fill="#26292E" transform="translate(274,88)"/>
<path d="M0 0 C0 26.4 0 52.8 0 80 C-15.3090619 80 -24.52816515 79.29012801 -36.03515625 69.21875 C-44.96800018 59.95215146 -48.39434019 48.19440042 -48.27734375 35.67578125 C-47.42420872 24.36873817 -41.68094424 16.27904944 -33.625 8.75 C-22.73323339 -0.5989194 -15.16198618 0 0 0 Z " fill="#FE515E" transform="translate(123,121)"/>
<path d="M0 0 C10.69162279 6.65778709 17.65846469 14.10945498 21.73046875 26.0859375 C22.35178303 29.54840735 22.27650653 33.01049362 22.2578125 36.515625 C22.26167969 37.25232422 22.26554687 37.98902344 22.26953125 38.74804688 C22.25949741 44.20144009 22.25949741 44.20144009 21.1328125 45.328125 C18.75980381 45.42307233 16.41602547 45.45371819 14.04272461 45.44165039 C13.30130722 45.44179642 12.55988983 45.44194244 11.79600525 45.4420929 C9.33402629 45.44139365 6.87212207 45.43360074 4.41015625 45.42578125 C2.70764711 45.42391711 1.00513743 45.42249319 -0.69737244 45.42149353 C-5.18711823 45.41766802 -9.67683188 45.40783747 -14.16656494 45.39678955 C-18.74450241 45.38657613 -23.32244506 45.38199606 -27.90039062 45.37695312 C-36.88933707 45.36621522 -45.87825962 45.34913841 -54.8671875 45.328125 C-54.91471337 42.62348795 -54.94928431 39.91969929 -54.9765625 37.21484375 C-54.99122559 36.45586792 -55.00588867 35.69689209 -55.02099609 34.91491699 C-55.10453428 23.84909084 -50.74042884 15.41736291 -43.3671875 7.328125 C-32.00787903 -3.47048634 -14.5056841 -7.17702837 0 0 Z " fill="#43CEDF" transform="translate(129.8671875,63.671875)"/>
<path d="M0 0 C25.08 0 50.16 0 76 0 C76 20.89285714 76 20.89285714 73 28 C72.34 28 71.68 28 71 28 C70.79375 28.680625 70.5875 29.36125 70.375 30.0625 C66.3115582 38.74348931 58.90143138 43.54593942 50.23828125 47.1484375 C41.23233808 49.51670724 28.22092903 49.72743482 20 45 C11.17353022 39.43639583 3.33182797 31.03504187 0.5 20.75 C-0.22427994 13.86934057 0 6.91867441 0 0 Z " fill="#FECC50" transform="translate(134,120)"/>
<path d="M0 0 C0.82048828 -0.00773437 1.64097656 -0.01546875 2.48632812 -0.0234375 C7.55773298 -0.00724786 11.75751191 0.6203136 16.5625 2.25 C16.5625 2.91 16.5625 3.57 16.5625 4.25 C17.284375 4.435625 18.00625 4.62125 18.75 4.8125 C22.52020895 6.73949568 24.82604979 9.37808549 26.5625 13.25 C26.69921875 16.484375 26.69921875 16.484375 26.5625 19.25 C23.9795535 19.52631521 21.39975557 19.77171274 18.8125 20 C18.08289063 20.08121094 17.35328125 20.16242188 16.6015625 20.24609375 C12.94470649 20.54529106 11.09165257 20.67539716 8.171875 18.328125 C7.64078125 17.64234375 7.1096875 16.9565625 6.5625 16.25 C4.23654054 15.08702027 2.77526769 15.08399309 0.1875 15.0625 C-0.58335937 15.04832031 -1.35421875 15.03414062 -2.1484375 15.01953125 C-4.65584888 15.27198393 -6.27011902 15.99806533 -8.4375 17.25 C-8.60437448 19.66645782 -8.60437448 19.66645782 -8.4375 22.25 C-6.28483795 24.40266205 -5.32982902 24.7276933 -2.47265625 25.51171875 C-1.27974976 25.85396484 -1.27974976 25.85396484 -0.06274414 26.203125 C0.78296143 26.44546875 1.62866699 26.6878125 2.5 26.9375 C12.67298234 30.00974258 22.24530691 33.42089028 27.5625 43.25 C28.68659146 49.95075297 29.04105041 57.18469097 25 62.9375 C19.29304533 69.11333592 12.05110799 71.85650328 3.73046875 72.5859375 C-5.55939992 72.67710402 -13.4080212 72.50957522 -20.78515625 66.26171875 C-25.49574911 61.45143081 -27.4375 57.99588929 -27.4375 51.25 C-25.10151531 50.86066922 -22.78748191 50.52986552 -20.4375 50.25 C-19.76589844 50.15847656 -19.09429688 50.06695312 -18.40234375 49.97265625 C-16.375 49.8125 -16.375 49.8125 -12.4375 50.25 C-11.0546875 51.58984375 -11.0546875 51.58984375 -9.75 53.25 C-7.6052657 55.76902311 -6.66817595 56.2153553 -3.31640625 56.71875 C3.93895919 56.85401708 3.93895919 56.85401708 10.5625 54.25 C10.86360818 51.36095637 10.86360818 51.36095637 9.5625 48.25 C6.47665895 46.3274444 3.00230789 45.37719219 -0.4375 44.25 C-2.48684572 43.54181946 -4.52948958 42.81857784 -6.56811523 42.08007812 C-7.94958421 41.57975115 -9.3357314 41.09210288 -10.72680664 40.61914062 C-16.65623743 38.49201684 -20.79481498 35.80605957 -24.28515625 30.375 C-26.71448345 23.78699405 -26.72653985 16.07597198 -23.8125 9.6875 C-16.27705701 1.95375587 -10.52455001 -0.0987448 0 0 Z " fill="#24272C" transform="translate(722.4375,109.75)"/>
<path d="M0 0 C0.86431641 -0.01611328 1.72863281 -0.03222656 2.61914062 -0.04882812 C9.92893786 -0.05434495 16.43882682 1.17793113 22.0625 6.25 C22.89394531 6.97509766 22.89394531 6.97509766 23.7421875 7.71484375 C27.09453246 11.42054399 27.4120895 14.37153092 27.1875 19.3125 C24.79205476 19.58970876 22.40022966 19.83475728 20 20.0625 C18.98969727 20.18431641 18.98969727 20.18431641 17.95898438 20.30859375 C14.22191919 20.6367263 12.47764948 20.50725245 9.32421875 18.390625 C8.61910156 17.70484375 7.91398438 17.0190625 7.1875 16.3125 C4.72380468 15.08065234 2.9980499 15.14517658 0.25 15.125 C-1.06291016 15.10373047 -1.06291016 15.10373047 -2.40234375 15.08203125 C-5.07494335 15.14586651 -5.07494335 15.14586651 -7.8125 17.3125 C-8.22916667 19.8125 -8.22916667 19.8125 -7.8125 22.3125 C-4.89257422 25.23242578 -1.23379222 25.87245253 2.625 27.0625 C22.5211951 33.46462358 22.5211951 33.46462358 27.1875 41.3125 C29.21812623 47.40437869 29.0502134 54.67643126 27.0625 60.75 C26.44375 61.595625 25.825 62.44125 25.1875 63.3125 C24.61902344 64.09367187 24.61902344 64.09367187 24.0390625 64.890625 C19.77033432 69.97361925 14.59822633 71.3835205 8.1875 72.3125 C-0.81757001 73.03972898 -9.94135197 73.43999072 -17.8125 68.3125 C-20.17696309 66.18498737 -22.02047606 63.93252181 -23.8125 61.3125 C-24.43125 60.44625 -25.05 59.58 -25.6875 58.6875 C-26.94951375 56.02324875 -27.06218794 54.22552594 -26.8125 51.3125 C-21.59694189 50.21448777 -16.09865058 49.34175448 -10.8125 50.3125 C-8.51092348 52.0960883 -7.43647158 53.82579352 -5.8125 56.3125 C-1.31328658 58.56210671 4.06802656 57.67233075 8.6875 56.1875 C11.49034883 54.48421151 11.49034883 54.48421151 12.0625 51.125 C12.10375 50.196875 12.145 49.26875 12.1875 48.3125 C8.94290585 46.97926808 5.70136547 45.80081816 2.3515625 44.76171875 C1.45179688 44.47490234 0.55203125 44.18808594 -0.375 43.89257812 C-2.23954248 43.30084485 -4.10673868 42.71740491 -5.9765625 42.14257812 C-13.13164989 39.83761783 -18.33489332 37.25818872 -23.2109375 31.4609375 C-26.15801807 25.66740838 -25.71911509 19.63174247 -24.8125 13.3125 C-22.26698253 7.74520695 -17.9923566 4.05066659 -12.67578125 1.14453125 C-8.45080419 -0.0831906 -4.37743693 -0.01610536 0 0 Z " fill="#22252A" transform="translate(636.8125,109.6875)"/>
<path d="M0 0 C5.61 0 11.22 0 17 0 C17 32.67 17 65.34 17 99 C11.39 99 5.78 99 0 99 C0 66.33 0 33.66 0 0 Z " fill="#24272C" transform="translate(348,81)"/>
<path d="M0 0 C5.61 0 11.22 0 17 0 C17 22.77 17 45.54 17 69 C11.39 69 5.78 69 0 69 C0 46.23 0 23.46 0 0 Z " fill="#282B2F" transform="translate(672,111)"/>
<path d="M0 0 C4.77445227 2.73420668 9.05092903 5.23576201 10.97265625 10.6484375 C12.04808431 17.42239817 12.88063811 24.51813474 8.75 30.3515625 C4.89820433 34.58853773 1.41367064 37.39576535 -4.3671875 38.12890625 C-11.53806408 38.37182212 -15.93647177 37.16495052 -21.4375 32.4140625 C-26.17756476 26.88398694 -26.24337131 21.31138121 -26.125 14.24609375 C-25.4704746 9.07417429 -23.62496442 6.13045022 -19.6875 2.7890625 C-13.64774061 -1.64262678 -6.96558984 -3.13856519 0 0 Z " fill="#FAFAFA" transform="translate(415.6875,127.2109375)"/>
<path d="M0 0 C3.55680172 2.10504591 4.69468936 3.08406808 6 7 C6.79049034 14.00148588 6.79049034 14.00148588 3.625 18 C0.07326046 20.47187573 -3.40118651 20.78271857 -7.65234375 20.5390625 C-10.66989352 19.84618086 -12.49757551 18.50811833 -14.21875 15.9140625 C-15.72438297 12.22526172 -15.85447449 8.87361769 -15 5 C-11.37820656 -0.91559595 -6.37613984 -1.15168372 0 0 Z " fill="#25282D" transform="translate(685,85)"/>
<path d="M0 0 C22.11 0 44.22 0 67 0 C67 0.33 67 0.66 67 1 C45.55 1 24.1 1 2 1 C2 30.04 2 59.08 2 89 C6.29 89 10.58 89 15 89 C15 77.12 15 65.24 15 53 C15.33 53 15.66 53 16 53 C16.33 65.54 16.66 78.08 17 91 C11.39 91 5.78 91 0 91 C0 60.97 0 30.94 0 0 Z " fill="#1C1F24" transform="translate(274,89)"/>
<path d="M0 0 C0.66 0.33 1.32 0.66 2 1 C0.23001341 2.96665176 -1.4284426 4.2690221 -3.6875 5.6875 C-8.03009781 8.47682605 -11.45180839 12.28970827 -15 16 C-15.66 15.67 -16.32 15.34 -17 15 C-13.67534509 8.14289925 -7.0696572 2.69320274 0 0 Z " fill="#FE5460" transform="translate(100,123)"/>
<path d="M0 0 C5.61 0 11.22 0 17 0 C17.33 1.65 17.66 3.3 18 5 C17.67 4.01 17.34 3.02 17 2 C12.05 2 7.1 2 2 2 C2.33 4.31 2.66 6.62 3 9 C1.24005726 5.83210307 0.75127114 3.75635569 0 0 Z " fill="#65676A" transform="translate(443,111)"/>
<path d="M0 0 C5.61 0 11.22 0 17 0 C16.67 1.32 16.34 2.64 16 4 C15.67 3.34 15.34 2.68 15 2 C10.05 2 5.1 2 0 2 C0 2.99 0 3.98 0 5 C-0.66 5 -1.32 5 -2 5 C-1.34 3.35 -0.68 1.7 0 0 Z " fill="#5E6064" transform="translate(594,111)"/>
<path d="M0 0 C3.71888239 0.50712033 6.73454239 1.11608215 10 3 C10 3.66 10 4.32 10 5 C11.65 5.33 13.3 5.66 15 6 C12.31485266 7.03274898 11.2078412 7.07566569 8.45703125 6.07421875 C7.58433594 5.61660156 6.71164063 5.15898437 5.8125 4.6875 C4.93207031 4.23761719 4.05164063 3.78773438 3.14453125 3.32421875 C1 2 1 2 0 0 Z " fill="#FE757F" transform="translate(92,193)"/>
<path d="M0 0 C1.125 3.75 1.125 3.75 0 6 C-0.66 6 -1.32 6 -2 6 C-2.33 10.95 -2.66 15.9 -3 21 C-3.33 21 -3.66 21 -4 21 C-4.10883596 18.62374823 -4.18766696 16.25256024 -4.25 13.875 C-4.28351562 13.20984375 -4.31703125 12.5446875 -4.3515625 11.859375 C-4.45638928 6.51320929 -3.19826227 4.04189838 0 0 Z " fill="#4B4D52" transform="translate(616,117)"/>
<path d="M0 0 C-0.33 0.66 -0.66 1.32 -1 2 C-2.32 1.67 -3.64 1.34 -5 1 C-5 1.66 -5 2.32 -5 3 C-8.3 2.67 -11.6 2.34 -15 2 C-15.33 3.32 -15.66 4.64 -16 6 C-16 4.35 -16 2.7 -16 1 C-10.63904667 -0.12862175 -5.44693314 -0.09688221 0 0 Z " fill="#55575B" transform="translate(626,160)"/>
<path d="M0 0 C0 0.33 0 0.66 0 1 C-4.98229776 2.91626837 -9.72684667 3.5547115 -15 4 C-14 2 -14 2 -12 0.875 C-7.95982523 -0.30338431 -4.17793151 -0.16384045 0 0 Z " fill="#4A4D51" transform="translate(636,110)"/>
<path d="M0 0 C1.77049689 -0.05410687 3.54146849 -0.09284119 5.3125 -0.125 C6.29863281 -0.14820312 7.28476562 -0.17140625 8.30078125 -0.1953125 C11 0 11 0 14 2 C14 2.66 14 3.32 14 4 C13.175 3.690625 12.35 3.38125 11.5 3.0625 C7.60873845 1.88122417 4.03833047 1.41775832 0 1 C0 0.67 0 0.34 0 0 Z " fill="#33353A" transform="translate(405,125)"/>
<path d="M0 0 C1.8871875 0.0309375 1.8871875 0.0309375 3.8125 0.0625 C3.8125 0.3925 3.8125 0.7225 3.8125 1.0625 C2.760625 1.145 1.70875 1.2275 0.625 1.3125 C-3.45797209 2.11570762 -5.1997727 3.25584709 -8.1875 6.0625 C-7.8575 4.4125 -7.5275 2.7625 -7.1875 1.0625 C-4.43671116 0.14557039 -2.82801087 -0.04636083 0 0 Z " fill="#181C21" transform="translate(680.1875,85.9375)"/>
<path d="M0 0 C3.48331435 3.01887244 4.79157144 5.56909529 6 10 C5.01 10.495 5.01 10.495 4 11 C3.32880451 9.5437455 2.66318193 8.08492133 2 6.625 C1.62875 5.81289062 1.2575 5.00078125 0.875 4.1640625 C0 2 0 2 0 0 Z " fill="#5AD4E3" transform="translate(143,75)"/>
<path d="M0 0 C0.66 0.33 1.32 0.66 2 1 C0.9024777 3.99324263 0.32317108 4.84610901 -2.625 6.25 C-3.40875 6.4975 -4.1925 6.745 -5 7 C-3.70700306 4.11562221 -2.34058637 2.12780579 0 0 Z " fill="#383A3F" transform="translate(704,114)"/>
<path d="M0 0 C4.43090471 1.20842856 6.98112756 2.51668565 10 6 C6.68437443 5.44739574 3.84937793 4.83174295 1 3 C0.67 2.01 0.34 1.02 0 0 Z " fill="#383A3F" transform="translate(649,111)"/>
<path d="M0 0 C0.66 0.33 1.32 0.66 2 1 C0.02579865 3.52259061 -0.96745642 3.9929808 -4.1875 4.6875 C-5.5796875 4.8421875 -5.5796875 4.8421875 -7 5 C-4.63707344 2.47411298 -3.33537489 1.11179163 0 0 Z " fill="#FE6672" transform="translate(100,123)"/>
<path d="M0 0 C0.6875 1.75 0.6875 1.75 1 4 C-0.3125 6.25 -0.3125 6.25 -2 8 C-2.66 8 -3.32 8 -4 8 C-2.25 2.25 -2.25 2.25 0 0 Z " fill="#52D2E2" transform="translate(83,75)"/>
<path d="M0 0 C2.95183101 2.95183101 3.08663988 5.95511947 4 10 C3.34 9.67 2.68 9.34 2 9 C2 8.34 2 7.68 2 7 C1.34 7 0.68 7 0 7 C0 4.69 0 2.38 0 0 Z " fill="#54565A" transform="translate(571,144)"/>
<path d="M0 0 C0.78375 0.04125 1.5675 0.0825 2.375 0.125 C1.715 0.49625 1.055 0.8675 0.375 1.25 C-1.97803045 3.03394778 -1.97803045 3.03394778 -1.875 6.3125 C-1.7925 7.240625 -1.71 8.16875 -1.625 9.125 C-2.285 9.125 -2.945 9.125 -3.625 9.125 C-4.25 5.75 -4.25 5.75 -4.625 2.125 C-2.625 0.125 -2.625 0.125 0 0 Z " fill="#46484D" transform="translate(715.625,123.875)"/>
<path d="M0 0 C0.66 0.33 1.32 0.66 2 1 C-0.12055614 4.1808342 -1.63050557 5.31525278 -5 7 C-5.66 6.67 -6.32 6.34 -7 6 C-4.69 4.02 -2.38 2.04 0 0 Z " fill="#393B40" transform="translate(389,114)"/>
<path d="M0 0 C0.99 0.495 0.99 0.495 2 1 C2 1.99 2 2.98 2 4 C2.66 4 3.32 4 4 4 C4.625 5.875 4.625 5.875 5 8 C4.34 8.66 3.68 9.32 3 10 C2.01 6.7 1.02 3.4 0 0 Z " fill="#43464A" transform="translate(448,126)"/>
</svg>
